<svg width="163" height="41" viewBox="0 0 163 41" fill="none" xmlns="http://www.w3.org/2000/svg">
<mask id="mask0_315_14" style="mask-type:luminance" maskUnits="userSpaceOnUse" x="0" y="8" width="30" height="33">
<path d="M0 8.61833H29.6564V40.6403H0V8.61833Z" fill="white"/>
</mask>
<g mask="url(#mask0_315_14)">
<path d="M16.6732 20.1514C17.2996 19.9798 17.9461 20.343 18.1177 20.9666C19.5164 26.0066 23.8957 29.645 29.0215 30.1828V12.7745C29.0215 10.798 27.4196 9.19328 25.4431 9.19328H3.57551C1.59613 9.19328 -0.00854492 10.798 -0.00854492 12.7745V37.2279C-0.00854492 39.2044 1.59613 40.8062 3.57551 40.8062H25.4431C27.4196 40.8062 29.0215 39.2044 29.0215 37.2279V32.5397C22.8459 31.9934 17.537 27.6427 15.858 21.593C15.6864 20.9695 16.0496 20.3259 16.6732 20.1514ZM23.6096 18.7155C24.4906 18.7155 25.2057 19.4363 25.2057 20.3287C25.2057 21.2155 24.4906 21.9391 23.6096 21.9391C22.7315 21.9391 22.0135 21.2155 22.0135 20.3287C22.0135 19.4363 22.7315 18.7155 23.6096 18.7155Z" fill="#3B7BF8"/>
</g>
<mask id="mask1_315_14" style="mask-type:luminance" maskUnits="userSpaceOnUse" x="6" y="0" width="17" height="10">
<path d="M6.95654 0H22.334V9.35059H6.95654V0Z" fill="white"/>
</mask>
<g mask="url(#mask1_315_14)">
<path d="M21.6475 9.19325H19.3048V7.15952C19.3048 4.51653 17.1538 2.36553 14.5108 2.36553C11.865 2.36553 9.71399 4.51653 9.71399 7.15952V9.19325H7.37134V7.15952C7.37134 3.22364 10.575 0.0228729 14.5108 0.0228729C18.4439 0.0228729 21.6504 3.2265 21.6504 7.15952V9.19325H21.6475Z" fill="#3B7BF8"/>
</g>
<mask id="mask2_315_14" style="mask-type:luminance" maskUnits="userSpaceOnUse" x="31" y="8" width="30" height="33">
<path d="M31.1208 8.61833H60.9603V40.6403H31.1208V8.61833Z" fill="white"/>
</mask>
<g mask="url(#mask2_315_14)">
<path d="M57.1131 9.19328H35.2426C33.2661 9.19328 31.6643 10.798 31.6643 12.7745V30.1828C36.7901 29.6479 41.1694 26.0066 42.5738 20.9666C42.7454 20.343 43.389 19.9769 44.0126 20.1514C44.6361 20.3259 45.0023 20.9695 44.8306 21.593C43.1487 27.6427 37.8427 31.9934 31.6643 32.5397V37.2279C31.6643 39.2044 33.2661 40.8062 35.2426 40.8062H57.1131C59.0896 40.8062 60.6943 39.2044 60.6943 37.2279V12.7745C60.6943 10.798 59.0896 9.19328 57.1131 9.19328ZM37.079 21.9391C36.1952 21.9391 35.4829 21.2155 35.4829 20.3287C35.4829 19.4363 36.1952 18.7155 37.079 18.7155C37.96 18.7155 38.6751 19.4363 38.6751 20.3287C38.6751 21.2155 37.96 21.9391 37.079 21.9391Z" fill="#3B7BF8"/>
</g>
<mask id="mask3_315_14" style="mask-type:luminance" maskUnits="userSpaceOnUse" x="38" y="0" width="16" height="10">
<path d="M38.4436 0H53.821V9.35059H38.4436V0Z" fill="white"/>
</mask>
<g mask="url(#mask3_315_14)">
<path d="M53.3204 9.19325H50.9777V7.15952C50.9777 4.51653 48.8267 2.36553 46.1808 2.36553C43.5378 2.36553 41.3868 4.51653 41.3868 7.15952V9.19325H39.0442V7.15952C39.0442 3.22364 42.2478 0.0228729 46.1808 0.0228729C50.1196 0.0228729 53.3232 3.2265 53.3232 7.15952V9.19325H53.3204Z" fill="#3B7BF8"/>
</g>
<path d="M81.271 11.2631V14.8443H86.0993V17.1326H81.271V20.9198H86.7057V23.2653H78.3992V8.9176H86.7057V11.2631H81.271Z" fill="white"/>
<path d="M99.0859 14.7299V17.1441H90.3789V14.7299H99.0859Z" fill="white"/>
<path d="M118.954 8.94049V23.2653H116.083V13.9519L112.238 23.2653H110.064L106.208 13.9519V23.2653H103.337V8.94049H106.598L111.151 19.5925L115.716 8.94049H118.954Z" fill="white"/>
<path d="M131.602 20.5307H125.892L124.943 23.2653H121.934L127.082 8.9176H130.423L135.583 23.2653H132.54L131.602 20.5307ZM130.812 18.231L128.741 12.2471L126.67 18.231H130.812Z" fill="white"/>
<path d="M145.927 23.2653L142.758 17.6818H141.408V23.2653H138.536V8.94049H143.914C145.018 8.94049 145.962 9.135 146.74 9.52401C147.523 9.91302 148.113 10.4393 148.502 11.1029C148.891 11.7665 149.085 12.5102 149.085 13.334C149.085 14.2722 148.811 15.1246 148.261 15.8855C147.712 16.6492 146.9 17.1727 145.824 17.453L149.245 23.2653H145.927ZM141.408 15.5308H143.811C144.589 15.5308 145.166 15.3449 145.55 14.9702C145.939 14.5897 146.133 14.0634 146.133 13.3912C146.133 12.7362 145.939 12.2299 145.55 11.8695C145.166 11.5034 144.589 11.3203 143.811 11.3203H141.408V15.5308Z" fill="white"/>
<path d="M162.467 8.94049V11.2631H158.645V23.2653H155.774V11.2631H151.952V8.94049H162.467Z" fill="white"/>
<path d="M78.8111 32.8247V35.3647H81.5685V36.177H78.8111V38.7857H81.8889V39.5981H77.8157V32.0123H81.8889V32.8247H78.8111Z" fill="#3B7BF8"/>
<path d="M86.0159 38.7972H88.6589V39.5981H85.0205V32.0238H86.0159V38.7972Z" fill="#3B7BF8"/>
<path d="M92.3406 32.8247V35.3647H95.098V36.177H92.3406V38.7857H95.4184V39.5981H91.3452V32.0123H95.4184V32.8247H92.3406Z" fill="#3B7BF8"/>
<path d="M98.1841 35.7995C98.1841 35.0672 98.3471 34.4093 98.6761 33.8201C99.0107 33.2251 99.4655 32.7618 100.038 32.4242C100.615 32.0896 101.256 31.9208 101.96 31.9208C102.789 31.9208 103.51 32.1239 104.122 32.5272C104.74 32.9248 105.189 33.4883 105.472 34.2206H104.294C104.079 33.7629 103.773 33.4139 103.379 33.1679C102.99 32.9162 102.515 32.7904 101.96 32.7904C101.433 32.7904 100.959 32.9162 100.541 33.1679C100.121 33.4139 99.7888 33.7629 99.5456 34.2206C99.3082 34.6725 99.1909 35.1988 99.1909 35.7995C99.1909 36.403 99.3082 36.9322 99.5456 37.3899C99.7888 37.8418 100.121 38.1908 100.541 38.4425C100.959 38.6885 101.433 38.8086 101.96 38.8086C102.515 38.8086 102.99 38.6885 103.379 38.4425C103.773 38.1993 104.079 37.8475 104.294 37.3899H105.472C105.189 38.1164 104.74 38.677 104.122 39.0718C103.51 39.4694 102.789 39.6667 101.96 39.6667C101.256 39.6667 100.615 39.5037 100.038 39.1747C99.4655 38.8401 99.0107 38.3795 98.6761 37.7903C98.3471 37.2039 98.1841 36.5403 98.1841 35.7995Z" fill="#3B7BF8"/>
<path d="M113.238 32.0238V32.8247H111.167V39.5981H110.183V32.8247H108.101V32.0238H113.238Z" fill="#3B7BF8"/>
<path d="M120.072 39.5981L118.264 36.4974H117.074V39.5981H116.079V32.0238H118.527C119.099 32.0238 119.58 32.1239 119.969 32.3213C120.364 32.5129 120.661 32.7761 120.861 33.1107C121.059 33.4483 121.159 33.8287 121.159 34.2549C121.159 34.7755 121.004 35.236 120.701 35.6393C120.404 36.0369 119.952 36.3001 119.351 36.4288L121.25 39.5981H120.072ZM117.074 35.708H118.527C119.059 35.708 119.46 35.5793 119.729 35.319C119.995 35.0529 120.129 34.6983 120.129 34.2549C120.129 33.8058 119.995 33.4597 119.729 33.2137C119.468 32.962 119.068 32.8362 118.527 32.8362H117.074V35.708Z" fill="#3B7BF8"/>
<path d="M127.749 39.6782C127.045 39.6782 126.404 39.5151 125.826 39.1862C125.246 38.8515 124.788 38.391 124.453 37.8018C124.116 37.2068 123.95 36.5403 123.95 35.7995C123.95 35.0672 124.116 34.4093 124.453 33.8201C124.788 33.2251 125.246 32.7646 125.826 32.4357C126.404 32.101 127.045 31.9323 127.749 31.9323C128.458 31.9323 129.101 32.101 129.682 32.4357C130.26 32.7646 130.718 33.2223 131.055 33.8087C131.39 34.3979 131.559 35.0615 131.559 35.7995C131.559 36.5489 131.39 37.2154 131.055 37.8018C130.718 38.391 130.26 38.8515 129.682 39.1862C129.101 39.5151 128.458 39.6782 127.749 39.6782ZM127.749 38.82C128.281 38.82 128.758 38.6999 129.179 38.4539C129.605 38.2022 129.937 37.8475 130.174 37.3899C130.417 36.9322 130.54 36.403 130.54 35.7995C130.54 35.1988 130.417 34.6725 130.174 34.2206C129.937 33.7629 129.608 33.4139 129.19 33.1679C128.77 32.9162 128.289 32.7904 127.749 32.7904C127.214 32.7904 126.736 32.9162 126.318 33.1679C125.898 33.4139 125.566 33.7629 125.323 34.2206C125.077 34.6725 124.957 35.1988 124.957 35.7995C124.957 36.403 125.077 36.9322 125.323 37.3899C125.566 37.8475 125.898 38.2022 126.318 38.4539C126.745 38.6999 127.222 38.82 127.749 38.82Z" fill="#3B7BF8"/>
<path d="M140.449 39.5981H139.453L135.483 33.5684V39.5981H134.488V32.0123H135.483L139.453 38.0306V32.0123H140.449V39.5981Z" fill="#3B7BF8"/>
<path d="M144.753 32.0238V39.5981H143.757V32.0238H144.753Z" fill="#3B7BF8"/>
<path d="M147.695 35.7995C147.695 35.0672 147.858 34.4093 148.187 33.8201C148.521 33.2251 148.976 32.7618 149.548 32.4242C150.126 32.0896 150.767 31.9208 151.47 31.9208C152.3 31.9208 153.021 32.1239 153.633 32.5272C154.251 32.9248 154.7 33.4883 154.983 34.2206H153.804C153.59 33.7629 153.284 33.4139 152.889 33.1679C152.5 32.9162 152.025 32.7904 151.47 32.7904C150.944 32.7904 150.469 32.9162 150.052 33.1679C149.631 33.4139 149.299 33.7629 149.056 34.2206C148.819 34.6725 148.701 35.1988 148.701 35.7995C148.701 36.403 148.819 36.9322 149.056 37.3899C149.299 37.8418 149.631 38.1908 150.052 38.4425C150.469 38.6885 150.944 38.8086 151.47 38.8086C152.025 38.8086 152.5 38.6885 152.889 38.4425C153.284 38.1993 153.59 37.8475 153.804 37.3899H154.983C154.7 38.1164 154.251 38.677 153.633 39.0718C153.021 39.4694 152.3 39.6667 151.47 39.6667C150.767 39.6667 150.126 39.5037 149.548 39.1747C148.976 38.8401 148.521 38.3795 148.187 37.7903C147.858 37.2039 147.695 36.5403 147.695 35.7995Z" fill="#3B7BF8"/>
<path d="M160.483 39.6782C159.985 39.6782 159.539 39.5923 159.144 39.415C158.747 39.2319 158.435 38.9859 158.206 38.6713C157.983 38.3509 157.869 37.9848 157.863 37.5729H158.915C158.953 37.9333 159.098 38.2337 159.35 38.4768C159.608 38.7228 159.985 38.8429 160.483 38.8429C160.955 38.8429 161.324 38.7257 161.593 38.4882C161.867 38.2537 162.005 37.9476 162.005 37.5729C162.005 37.284 161.925 37.0523 161.764 36.875C161.604 36.6919 161.404 36.5546 161.169 36.4631C160.932 36.3658 160.609 36.2629 160.197 36.1542C159.699 36.0255 159.299 35.8967 158.996 35.7652C158.698 35.6364 158.441 35.4305 158.229 35.1473C158.014 34.867 157.909 34.4923 157.909 34.026C157.909 33.6142 158.012 33.248 158.217 32.9277C158.429 32.6073 158.727 32.3613 159.11 32.184C159.49 32.0095 159.925 31.9208 160.414 31.9208C161.124 31.9208 161.701 32.101 162.153 32.4586C162.611 32.8104 162.868 33.2795 162.931 33.8659H161.844C161.804 33.577 161.653 33.3224 161.387 33.0993C161.118 32.879 160.763 32.7675 160.323 32.7675C159.911 32.7675 159.57 32.8762 159.304 33.0878C159.044 33.3024 158.915 33.6027 158.915 33.9917C158.915 34.2663 158.99 34.4923 159.144 34.6668C159.304 34.8441 159.499 34.9757 159.728 35.0672C159.957 35.153 160.277 35.2503 160.689 35.3647C161.192 35.5106 161.593 35.6507 161.89 35.788C162.193 35.9196 162.454 36.1256 162.668 36.4059C162.888 36.6805 163 37.0581 163 37.5386C163 37.9047 162.9 38.2537 162.703 38.5798C162.511 38.9001 162.222 39.1633 161.833 39.3692C161.45 39.5752 161.001 39.6782 160.483 39.6782Z" fill="#3B7BF8"/>
</svg>
