<svg width="40" height="40" viewBox="0 0 40 40" fill="none" xmlns="http://www.w3.org/2000/svg">
<path d="M20.0038 11.2828C15.1797 11.2828 11.2886 15.1748 11.2886 20C11.2886 24.8252 15.1797 28.7172 20.0038 28.7172C24.8279 28.7172 28.719 24.8252 28.719 20C28.719 15.1748 24.8279 11.2828 20.0038 11.2828ZM20.0038 25.6673C16.8863 25.6673 14.3378 23.1257 14.3378 20C14.3378 16.8743 16.8788 14.3327 20.0038 14.3327C23.1288 14.3327 25.6698 16.8743 25.6698 20C25.6698 23.1257 23.1212 25.6673 20.0038 25.6673ZM31.1083 10.9263C31.1083 12.0567 30.1981 12.9595 29.0755 12.9595C27.9453 12.9595 27.0427 12.0491 27.0427 10.9263C27.0427 9.80341 27.9529 8.893 29.0755 8.893C30.1981 8.893 31.1083 9.80341 31.1083 10.9263ZM36.8805 12.9898C36.7516 10.2662 36.1296 7.85362 34.1347 5.86589C32.1475 3.87817 29.7354 3.25605 27.0124 3.11949C24.2059 2.96017 15.7941 2.96017 12.9876 3.11949C10.2722 3.24847 7.86012 3.87058 5.86525 5.85831C3.87039 7.84603 3.256 10.2586 3.11946 12.9823C2.96018 15.7894 2.96018 24.2031 3.11946 27.0102C3.24841 29.7338 3.87039 32.1464 5.86525 34.1341C7.86012 36.1218 10.2646 36.7439 12.9876 36.8805C15.7941 37.0398 24.2059 37.0398 27.0124 36.8805C29.7354 36.7515 32.1475 36.1294 34.1347 34.1341C36.122 32.1464 36.744 29.7338 36.8805 27.0102C37.0398 24.2031 37.0398 15.7969 36.8805 12.9898ZM33.2549 30.0221C32.6632 31.5091 31.5179 32.6547 30.0236 33.254C27.7861 34.1417 22.4765 33.9369 20.0038 33.9369C17.5311 33.9369 12.2139 34.1341 9.98394 33.254C8.49727 32.6623 7.35192 31.5167 6.75271 30.0221C5.86525 27.784 6.07005 22.4733 6.07005 20C6.07005 17.5267 5.87284 12.2084 6.75271 9.97791C7.34434 8.49091 8.48968 7.34531 9.98394 6.74596C12.2215 5.85831 17.5311 6.06315 20.0038 6.06315C22.4765 6.06315 27.7936 5.86589 30.0236 6.74596C31.5103 7.33772 32.6557 8.48332 33.2549 9.97791C34.1423 12.216 33.9375 17.5267 33.9375 20C33.9375 22.4733 34.1423 27.7916 33.2549 30.0221Z" fill="#3B7BF8"/>
</svg>
