<svg width="40" height="40" viewBox="0 0 40 40" fill="none" xmlns="http://www.w3.org/2000/svg">
<path d="M33.6429 4H5.34978C4.05335 4 3 5.03571 3 6.30714V33.6929C3 34.9643 4.05335 36 5.34978 36H33.6429C34.9393 36 36 34.9643 36 33.6929V6.30714C36 5.03571 34.9393 4 33.6429 4ZM12.9737 31.4286H8.08259V16.1571H12.981V31.4286H12.9737ZM10.5281 14.0714C8.95915 14.0714 7.69219 12.8357 7.69219 11.3214C7.69219 9.80714 8.95915 8.57143 10.5281 8.57143C12.0897 8.57143 13.3641 9.80714 13.3641 11.3214C13.3641 12.8429 12.0971 14.0714 10.5281 14.0714ZM31.3078 31.4286H26.4167V24C26.4167 22.2286 26.3799 19.95 23.8754 19.95C21.3268 19.95 20.9364 21.8786 20.9364 23.8714V31.4286H16.0453V16.1571H20.7375V18.2429H20.8038C21.4594 17.0429 23.0578 15.7786 25.4371 15.7786C30.3871 15.7786 31.3078 18.9429 31.3078 23.0571V31.4286Z" fill="#3B7BF8"/>
</svg>
