<svg width="40" height="40" viewBox="0 0 40 40" fill="none" xmlns="http://www.w3.org/2000/svg">
<path d="M32.6079 13.4797C32.6289 13.764 32.6289 14.0484 32.6289 14.3328C32.6289 23.0062 25.8237 33 13.3858 33C9.55394 33 5.99431 31.9234 3 30.0547C3.54444 30.1156 4.06786 30.1359 4.63325 30.1359C7.79501 30.1359 10.7056 29.1 13.0298 27.3328C10.0565 27.2719 7.56472 25.3828 6.7062 22.7828C7.12502 22.8437 7.54377 22.8843 7.98354 22.8843C8.59075 22.8843 9.19803 22.8031 9.76335 22.6609C6.66437 22.0515 4.34005 19.4109 4.34005 16.2219V16.1406C5.2404 16.6281 6.28744 16.9328 7.39714 16.9734C5.57543 15.7953 4.38194 13.7843 4.38194 11.5093C4.38194 10.2906 4.71691 9.17341 5.30324 8.19841C8.63258 12.1797 13.6371 14.7796 19.2487 15.064C19.144 14.5765 19.0812 14.0688 19.0812 13.5609C19.0812 9.94528 22.0964 7 25.8445 7C27.7919 7 29.5507 7.79219 30.7862 9.07187C32.3147 8.78751 33.7804 8.23905 35.0787 7.4875C34.5761 9.01098 33.5082 10.2907 32.1053 11.1031C33.4664 10.961 34.7856 10.5953 36 10.0875C35.0788 11.3875 33.9271 12.5452 32.6079 13.4797Z" fill="#3B7BF8"/>
</svg>
