<svg width="40" height="40" viewBox="0 0 40 40" fill="none" xmlns="http://www.w3.org/2000/svg">
<path d="M37.2268 10.9117C36.8013 9.37194 35.5476 8.15931 33.9557 7.74779C31.0702 7 19.5 7 19.5 7C19.5 7 7.92984 7 5.04434 7.74779C3.45244 8.15937 2.19868 9.37194 1.77315 10.9117C1 13.7025 1 19.5253 1 19.5253C1 19.5253 1 25.348 1.77315 28.1389C2.19868 29.6786 3.45244 30.8407 5.04434 31.2522C7.92984 32 19.5 32 19.5 32C19.5 32 31.0702 32 33.9557 31.2522C35.5476 30.8407 36.8013 29.6786 37.2268 28.1389C38 25.348 38 19.5253 38 19.5253C38 19.5253 38 13.7025 37.2268 10.9117ZM15.7159 24.8119V14.2386L25.3863 19.5254L15.7159 24.8119Z" fill="#3B7BF8"/>
</svg>
