<svg xmlns="http://www.w3.org/2000/svg" width="35" height="32" viewBox="0 0 35 32" fill="none">
<path d="M0 1.14286C0 0.839753 0.120408 0.549063 0.334735 0.334735C0.549062 0.120408 0.839752 0 1.14286 0H4.57143C4.82636 7.04262e-05 5.07394 0.085373 5.27481 0.242342C5.47568 0.399312 5.61831 0.618935 5.68 0.866286L6.60571 4.57143H33.1429C33.3165 4.57148 33.4878 4.61107 33.6438 4.68721C33.7998 4.76334 33.9364 4.87402 34.0432 5.01083C34.1501 5.14765 34.2244 5.30701 34.2605 5.47682C34.2965 5.64663 34.2934 5.82242 34.2514 5.99086L30.8229 19.7051C30.7612 19.9525 30.6185 20.1721 30.4177 20.3291C30.2168 20.4861 29.9692 20.5714 29.7143 20.5714H9.14286C8.88793 20.5714 8.64034 20.4861 8.43947 20.3291C8.2386 20.1721 8.09598 19.9525 8.03429 19.7051L3.68 2.28571H1.14286C0.839752 2.28571 0.549062 2.16531 0.334735 1.95098C0.120408 1.73665 0 1.44596 0 1.14286ZM7.17714 6.85714L10.0343 18.2857H28.8229L31.68 6.85714H7.17714ZM11.4286 25.1429C10.8224 25.1429 10.241 25.3837 9.81233 25.8123C9.38367 26.241 9.14286 26.8224 9.14286 27.4286C9.14286 28.0348 9.38367 28.6162 9.81233 29.0448C10.241 29.4735 10.8224 29.7143 11.4286 29.7143C12.0348 29.7143 12.6162 29.4735 13.0448 29.0448C13.4735 28.6162 13.7143 28.0348 13.7143 27.4286C13.7143 26.8224 13.4735 26.241 13.0448 25.8123C12.6162 25.3837 12.0348 25.1429 11.4286 25.1429ZM6.85714 27.4286C6.85714 26.2162 7.33877 25.0534 8.19608 24.1961C9.05339 23.3388 10.2162 22.8571 11.4286 22.8571C12.641 22.8571 13.8038 23.3388 14.6611 24.1961C15.5184 25.0534 16 26.2162 16 27.4286C16 28.641 15.5184 29.8038 14.6611 30.6611C13.8038 31.5184 12.641 32 11.4286 32C10.2162 32 9.05339 31.5184 8.19608 30.6611C7.33877 29.8038 6.85714 28.641 6.85714 27.4286ZM27.4286 25.1429C26.8224 25.1429 26.241 25.3837 25.8123 25.8123C25.3837 26.241 25.1429 26.8224 25.1429 27.4286C25.1429 28.0348 25.3837 28.6162 25.8123 29.0448C26.241 29.4735 26.8224 29.7143 27.4286 29.7143C28.0348 29.7143 28.6162 29.4735 29.0448 29.0448C29.4735 28.6162 29.7143 28.0348 29.7143 27.4286C29.7143 26.8224 29.4735 26.241 29.0448 25.8123C28.6162 25.3837 28.0348 25.1429 27.4286 25.1429ZM22.8571 27.4286C22.8571 26.2162 23.3388 25.0534 24.1961 24.1961C25.0534 23.3388 26.2162 22.8571 27.4286 22.8571C28.641 22.8571 29.8037 23.3388 30.6611 24.1961C31.5184 25.0534 32 26.2162 32 27.4286C32 28.641 31.5184 29.8038 30.6611 30.6611C29.8037 31.5184 28.641 32 27.4286 32C26.2162 32 25.0534 31.5184 24.1961 30.6611C23.3388 29.8038 22.8571 28.641 22.8571 27.4286Z" fill="#B9B9B9"/>
</svg>