<svg width="24" height="34" viewBox="0 0 24 34" fill="none" xmlns="http://www.w3.org/2000/svg">
<path d="M22.2701 22.8467C19.0448 30.1019 9.84001 39.1044 1.98017 23.0103C1.37318 21.7674 1.7758 20.2483 2.95883 19.5316C11.6271 14.2802 18.63 17.9107 21.5117 19.9754C22.4292 20.6328 22.7287 21.8153 22.2701 22.8467Z" stroke="#B9B9B9" stroke-width="3"/>
<path fill-rule="evenodd" clip-rule="evenodd" d="M18.5456 6.77889C18.5456 8.57676 17.8314 10.301 16.5601 11.5723C15.2888 12.8436 13.5646 13.5578 11.7667 13.5578C9.96881 13.5578 8.24457 12.8436 6.97328 11.5723C5.702 10.301 4.98779 8.57676 4.98779 6.77889C4.98779 4.98102 5.702 3.25678 6.97328 1.98549C8.24457 0.714202 9.96881 0 11.7667 0C13.5646 0 15.2888 0.714202 16.5601 1.98549C17.8314 3.25678 18.5456 4.98102 18.5456 6.77889ZM15.1561 6.77889C15.1561 7.67782 14.799 8.53994 14.1634 9.17559C13.5277 9.81123 12.6656 10.1683 11.7667 10.1683C10.8677 10.1683 10.0056 9.81123 9.36998 9.17559C8.73434 8.53994 8.37724 7.67782 8.37724 6.77889C8.37724 5.87995 8.73434 5.01783 9.36998 4.38219C10.0056 3.74655 10.8677 3.38944 11.7667 3.38944C12.6656 3.38944 13.5277 3.74655 14.1634 4.38219C14.799 5.01783 15.1561 5.87995 15.1561 6.77889Z" fill="#B9B9B9"/>
</svg>
