<svg width="19" height="16" viewBox="0 0 19 16" fill="none" xmlns="http://www.w3.org/2000/svg">
<path fill-rule="evenodd" clip-rule="evenodd" d="M6.96175 10.983C9.96159 10.983 12.3934 8.82795 12.3934 6.16949C12.3934 3.51104 9.96159 1.35593 6.96175 1.35593C3.96191 1.35593 1.53005 3.51104 1.53005 6.16949C1.53005 8.82795 3.96191 10.983 6.96175 10.983ZM6.96175 12.339C10.8066 12.339 13.9235 9.57681 13.9235 6.16949C13.9235 2.76218 10.8066 0 6.96175 0C3.11688 0 0 2.76218 0 6.16949C0 9.57681 3.11688 12.339 6.96175 12.339Z" fill="white"/>
<path fill-rule="evenodd" clip-rule="evenodd" d="M17.3607 15.8014L10.6284 9.83533L11.7104 8.87654L18.4426 14.8426C18.7414 15.1074 18.7414 15.5367 18.4426 15.8014C18.1438 16.0662 17.6594 16.0662 17.3607 15.8014Z" fill="white"/>
</svg>
